<svg id="nav-bar-logo" viewBox="0 0 281 63" version="1.1" height="40" width="142" xmlns="http://www.w3.org/2000/svg" xmlns:xlink="http://www.w3.org/1999/xlink">
    <g id="logo" stroke="none" stroke-width="1" fill="none" fill-rule="evenodd">
        <g id="GriffinLogo" fill="#FFFFFF">
            <g id="Logo">
                <g id="Group" transform="translate(236.000000, 0.000000)">
                    <path d="M38.909,34.637 C39.135,29.557 37.649,27.017 35.715,24.587 C37.676,24.393 38.967,23.397 39.982,21.79 C38.931,22.195 37.133,22.126 36.214,21.733 C36.816,18.153 34.566,17.432 33.837,15.177 C35.239,14.121 37.807,14.736 37.949,15.932 C38.098,17.2 36.27,17.118 36.603,18.512 C36.67,18.785 36.936,19.097 37.223,19.142 C38.773,19.39 38.581,18.66 40.327,18.804 C41.954,18.917 42.852,19.49 43.716,20.013 C44.834,15.821 44.041,13.801 40.335,13.308 C39.855,12.04 38.762,10.752 36.838,10.654 C35.902,10.601 34.72,10.939 33.005,10.898 C27.377,10.763 22.905,9.467 20.189,6.689 C19.911,8.067 18.916,17.159 23.774,28.182 C25.796,32.772 26.057,37.421 25.962,39.438 C25.861,41.636 25.015,44.25 24.33,46.415 C23.108,50.325 21.293,56.857 24.462,60.031 C25.833,61.403 27.078,61.752 27.783,61.716 C29.392,61.633 29.805,61.646 31.288,62.643 C31.197,61.189 30.622,60.396 29.08,60.228 C28.259,60.138 27.458,60.409 26.618,60.143 C24.776,59.593 24.627,56.638 25.396,54.523 C27.506,48.748 32.855,43.649 34.684,38.12 C35.433,39.147 35.81,41.057 35.446,42.818 C36.875,40.387 38.103,36.368 37.238,32.779 C37.838,33.259 38.685,33.779 38.909,34.637 Z" id="Path"></path>
                    <path d="M19.779,30.629 C18.066,27.224 16.504,23.351 15.935,19.015 C15.349,14.468 14.179,11.583 11.893,8.691 C7.644,3.316 8.138,0.837 8.138,0.837 C7.626,1.583 2.781,9.265 11.051,19.586 C11.051,19.586 5.516,17.273 3.357,10.874 C3.357,10.874 1.5,14.668 3.236,19.076 C5.475,24.767 10.059,26.21 10.55,28.532 C8.071,26.959 7.099,28.765 4.382,25.511 C4.581,28.911 5.795,31.138 8.168,33.305 C10.349,35.296 13.174,35.965 14.099,36.281 C13.543,36.278 12.983,36.319 12.41,36.443 C9.877,37.008 7.895,39.166 7.102,41.523 C6.57,43.101 6.867,45.943 5.542,46.981 C2.752,49.164 1.375,50.289 0.686,52.753 C-0.275,56.189 0.973,59.832 3.302,61.502 C4.602,62.435 5.637,61.115 7.683,62.163 C6.753,59.705 5.824,60.476 4.439,60.035 C3.3,58.657 2.344,56.041 3.313,54.001 C4.414,51.666 8.006,51.041 11.369,50.356 C14.566,49.712 17.681,48.715 19.539,46.931 C24.5,42.161 21.568,34.175 19.779,30.629 Z" id="Path"></path>
                </g>
                <g id="Group" transform="translate(0.000000, 6.000000)" fill-rule="nonzero">
                    <path d="M30.545,36.219 L24.359,36.219 L29.402,26.438 L42.39,26.438 L42.39,54.1 C39.435,55.121 36.594,55.792 33.869,56.125 C31.144,56.455 28.763,56.621 26.725,56.621 C22.241,56.621 18.344,55.933 15.034,54.557 C11.722,53.183 8.971,51.272 6.781,48.827 C4.591,46.384 2.961,43.454 1.892,40.04 C0.822,36.628 0.287,32.883 0.287,28.808 C0.287,24.733 0.846,20.963 1.967,17.498 C3.088,14.035 4.73,11.041 6.897,8.519 C9.062,5.998 11.748,4.038 14.958,2.635 C18.167,1.235 21.835,0.533 25.961,0.533 C28.355,0.533 30.662,0.713 32.878,1.069 C35.092,1.425 37.576,2.165 40.327,3.284 L35.132,12.837 C34.163,12.429 32.992,12.111 31.617,11.881 C30.242,11.652 28.764,11.538 27.185,11.538 C22.651,11.538 19.225,12.963 16.907,15.816 C14.589,18.67 13.43,23 13.43,28.806 C13.43,34.615 14.576,38.868 16.869,41.568 C19.161,44.269 22.625,45.618 27.261,45.618 C28.484,45.618 29.579,45.517 30.546,45.313 L30.546,36.219 L30.545,36.219 Z" id="Path"></path>
                    <path d="M66.954,17.269 C67.566,16.861 68.418,16.466 69.514,16.083 C70.609,15.701 71.846,15.51 73.22,15.51 C74.393,15.51 75.347,15.562 76.087,15.664 C76.823,15.766 77.195,15.791 77.195,15.74 L77.195,25.454 C74.548,25.195 71.864,25.627 70.82,25.855 C69.774,26.084 68.737,26.672 67.871,27.285 C66.852,27.998 66.126,29.265 65.694,30.487 C65.26,31.709 65.044,33.39 65.044,35.532 L65.044,55.856 L53.583,55.856 L53.583,25.52 L47.393,25.52 L52.284,15.816 L65.044,15.816 L65.044,18.796 C65.298,18.593 65.528,18.389 65.732,18.185 C65.935,18.032 66.139,17.868 66.343,17.688 C66.545,17.511 66.75,17.371 66.954,17.269 Z" id="Path"></path>
                    <path d="M109.944,25.443 L102.063,25.443 L107.259,15.816 L109.944,15.816 L109.944,14.518 C110.046,12.632 110.428,10.825 111.09,9.091 C111.751,7.361 112.746,5.908 114.07,4.737 C116.821,1.986 120.589,0.609 125.379,0.609 C126.754,0.609 128.041,0.7 129.238,0.878 C130.435,1.057 131.9,1.426 133.633,1.986 C132.613,3.717 131.798,5.093 131.187,6.111 C130.575,7.131 129.76,8.507 128.741,10.238 L126.831,10.238 C125.2,10.238 123.901,10.57 122.935,11.231 C121.967,11.893 121.482,12.989 121.482,14.518 L121.482,15.816 L129.732,15.816 L124.535,25.443 L121.468,25.443 L121.482,25.443 L121.482,55.781 L109.943,55.781 L109.943,25.443 L109.944,25.443 Z" id="Path"></path>
                    <path d="M139.07,25.443 L131.189,25.443 L136.385,15.816 L139.07,15.816 L139.07,14.518 C139.172,12.632 139.554,10.825 140.216,9.091 C140.877,7.361 141.872,5.908 143.196,4.737 C145.947,1.986 149.715,0.609 154.505,0.609 C155.881,0.609 157.167,0.7 158.363,0.878 C159.56,1.057 161.025,1.426 162.759,1.986 C161.738,3.717 160.923,5.093 160.313,6.111 C159.701,7.131 158.886,8.507 157.867,10.238 L155.958,10.238 C154.326,10.238 153.027,10.57 152.062,11.231 C151.093,11.893 150.609,12.989 150.609,14.518 L150.609,15.816 L158.859,15.816 L153.662,25.443 L150.596,25.443 L150.61,25.443 L150.61,55.781 L139.07,55.781 L139.07,25.443 Z" id="Path"></path>
                    <polygon id="Path" points="178.306 15.893 178.306 55.782 166.767 55.782 166.769 25.444 160.579 25.444 165.775 15.893"></polygon>
                    <path d="M189.828,25.368 L183.648,25.368 L188.693,15.892 L199.533,15.892 L200.524,20.171 C201.797,18.796 203.314,17.65 205.073,16.733 C206.829,15.815 208.854,15.356 211.148,15.356 C215.781,15.356 219.221,16.592 221.463,19.062 C223.702,21.535 224.825,25.442 224.825,30.791 L224.825,55.779 L213.211,55.779 L213.211,32.779 C213.211,30.436 212.638,28.755 211.49,27.735 C210.344,26.715 208.879,26.206 207.096,26.206 C205.617,26.206 204.294,26.703 203.121,27.696 C201.948,28.69 201.365,30.333 201.365,32.624 L201.365,55.779 L189.826,55.779 L189.826,25.368 L189.828,25.368 Z" id="Path"></path>
                </g>
                <rect id="Rectangle" fill-rule="nonzero" x="86.326" y="9.115" width="11.216" height="7.163"></rect>
                <rect id="Rectangle" fill-rule="nonzero" x="167.089" y="9.115" width="11.217" height="7.163"></rect>
                <polygon id="Path" fill-rule="nonzero" points="97.848 21.893 97.848 61.782 86.309 61.782 86.31 31.444 80.121 31.444 85.316 21.893"></polygon>
            </g>
        </g>
    </g>
</svg>